<svg xmlns="http://www.w3.org/2000/svg" viewBox="0 0 256 256">
  <defs>
    <linearGradient id="a" x1="0" x2="1" y1="1" y2="0">
      <stop offset="0%" stop-color="#8C30F5"/>
      <stop offset="50%" stop-color="#61D9FB"/>
      <stop offset="100%" stop-color="#3EDC81"/>
    </linearGradient>
  </defs>
  <circle cx="128" cy="128" r="128" fill="url(#a)"/>
  <path fill="#fff" d="M133 166c-6-8-10-21-10-34 0-22 13-33 27-33s24 12 24 28c0 18-10 30-19 34-2 1-3 0-4-2s-2-4-3-6c-4-10-6-18-6-28 0-5 0-9 1-13 1-3 0-4-1-5s-3 0-4 2a39 39 0 00-5 19c0 12 3 23 10 32 2 2 1 4 0 5-1 2-3 2-4 1z"/>
</svg>
