<svg xmlns="http://www.w3.org/2000/svg" viewBox="0 0 98 96">
  <path fill="#181717" d="M49 .5C22 .5 0 23.2 0 50.3c0 22 14.3 40.7 34.1 47.3 2.5.5 3.4-1.1 3.4-2.4v-8.3c-13.9 3-16.8-6.8-16.8-6.8-2.3-5.8-5.7-7.3-5.7-7.3-4.7-3.3.4-3.3.4-3.3 5.1.4 7.8 5.2 7.8 5.2 4.6 7.9 12.1 5.6 15 .4.5-3.4 1.8-5.7 3.2-7-11.1-1.3-22.8-5.6-22.8-24.8 0-5.5 1.9-10 5.1-13.6-.5-1.3-2.2-6.5.5-13.5 0 0 4.2-1.3 13.8 5.1a47 47 0 0125 0c9.6-6.4 13.8-5.1 13.8-5.1 2.7 7 1 12.2.5 13.5a19.4 19.4 0 015.1 13.6c0 19.3-11.7 23.5-22.8 24.8 1.8 1.5 3.4 4.5 3.4 9v13.4c0 1.3.9 2.8 3.4 2.4A50 50 0 0098 50.3C98 23.2 76 0.5 49 .5z"/>
</svg>
